<?xml version="1.0" standalone="no"?><!DOCTYPE svg PUBLIC "-//W3C//DTD SVG 1.1//EN" "http://www.w3.org/Graphics/SVG/1.1/DTD/svg11.dtd"><svg class="icon" width="200px" height="200.00px" viewBox="0 0 1024 1024" version="1.1" xmlns="http://www.w3.org/2000/svg"><path fill="#1296db" d="M288 384v-74.664c0-123.72 100.272-224.003 224-224.003 123.74 0 224 100.229 224 224.003V384h10.682C811.45 384 864 436.598 864 501.327V821.34c0 64.82-52.467 117.328-117.318 117.328H277.318C212.55 938.667 160 886.069 160 821.339V501.327C160 436.507 212.467 384 277.318 384H288z m64 0h320v-74.664c0-88.423-71.601-160.003-160-160.003-88.38 0-160 71.627-160 160.003V384zM224 501.327V821.34c0 29.396 23.91 53.328 53.318 53.328h469.364c29.494 0 53.318-23.843 53.318-53.328V501.327C800 471.931 776.09 448 746.682 448H277.318C247.824 448 224 471.842 224 501.327z"  /></svg>