<?xml version="1.0" standalone="no"?><!DOCTYPE svg PUBLIC "-//W3C//DTD SVG 1.1//EN" "http://www.w3.org/Graphics/SVG/1.1/DTD/svg11.dtd"><svg class="icon" width="200px" height="199.80px" viewBox="0 0 1025 1024" version="1.1" xmlns="http://www.w3.org/2000/svg"><path fill="#1296db" d="M336.013 916.625c-35.924 22.32-82.891 10.776-104.703-25.548-10.34-17.222-13.553-37.853-8.96-57.436l46.485-198.233c1.122-4.784-0.474-9.78-4.017-12.867L112.66 489.96c-31.603-27.538-35.257-75.654-8.238-107.738 13.03-15.474 31.628-25.113 51.724-26.752l199.709-16.286c4.35-0.355 8.243-3.232 10.027-7.595l76.94-188.168c16.03-39.202 60.618-57.911 99.513-41.455 18.527 7.838 33.194 22.757 40.84 41.455l76.94 188.168c1.784 4.363 5.677 7.24 10.027 7.595l199.708 16.286c41.883 3.416 72.89 40.453 69.574 82.516-1.584 20.094-10.942 38.777-26.088 51.974L761.181 622.54c-3.544 3.087-5.14 8.083-4.018 12.867L803.65 833.64c9.618 41.011-15.36 82.335-56.143 92.23-19.637 4.766-40.335 1.431-57.52-9.246l-170.979-106.23c-3.714-2.307-8.301-2.307-12.016 0l-170.978 106.23z m216.77-160.591L723.76 862.263c2.622 1.628 5.715 2.127 8.654 1.414 6.41-1.556 10.565-8.43 8.925-15.424L694.853 650.02c-6.521-27.811 2.809-57.02 24.284-75.732l152.156-132.58c2.482-2.162 4.059-5.31 4.33-8.75 0.562-7.13-4.494-13.17-10.974-13.699l-199.708-16.286c-28.487-2.323-53.198-20.585-64.065-47.16l-76.94-188.169c-1.268-3.1-3.634-5.507-6.537-6.735-5.902-2.497-12.733 0.37-15.336 6.735l-76.94 188.168c-10.867 26.576-35.579 44.838-64.065 47.161L161.349 419.26c-3.04 0.248-5.904 1.733-7.972 4.189-4.545 5.397-3.915 13.691 1.328 18.26l152.157 132.58c21.475 18.712 30.805 47.92 24.283 75.732L284.66 848.253c-0.793 3.382-0.238 6.95 1.52 9.877 3.478 5.793 10.578 7.538 16.059 4.133l170.978-106.23a75.291 75.291 0 0 1 79.567 0z"  /></svg>