<?xml version="1.0" standalone="no"?><!DOCTYPE svg PUBLIC "-//W3C//DTD SVG 1.1//EN" "http://www.w3.org/Graphics/SVG/1.1/DTD/svg11.dtd"><svg class="icon" width="200px" height="200.00px" viewBox="0 0 1024 1024" version="1.1" xmlns="http://www.w3.org/2000/svg"><path fill="#1296db" d="M518.969 847.497c-21.298 3.835-43.233 5.836-65.636 5.836-67.471 0-132.35-18.214-188.998-52.182-2.04-1.223-7.176-4.237-15.309-8.983l-86.949 23.713c-23.888 6.515-45.807-15.404-39.292-39.292l23.686-86.847c-8.83-15.009-14.66-25.156-17.639-30.71-28.414-52.981-43.499-112.287-43.499-173.699 0-203.24 164.76-368 368-368 185.512 0 338.963 137.269 364.323 315.776 74.369 46.188 121.011 127.774 121.011 217.558 0 42.71-10.496 83.978-30.266 120.84-1.791 3.34-4.988 8.935-9.687 16.958l14.61 53.566c6.514 23.888-15.405 45.807-39.293 39.292l-53.646-14.63a862.333 862.333 0 0 0-6.233 3.667c-39.412 23.632-84.558 36.307-131.485 36.307-60.677 0-118.132-21.228-163.698-59.17z m79.853-24.042c25.726 12.506 54.248 19.212 83.845 19.212 35.252 0 69.036-9.485 98.572-27.196 2.208-1.323 8.288-4.881 18.515-10.836a32 32 0 0 1 24.522-3.22l12.568 3.428-3.428-12.567a32 32 0 0 1 3.337-24.724c8.097-13.675 13.271-22.608 15.247-26.293 14.811-27.616 22.667-58.502 22.667-90.592 0-51.313-20.292-99.035-54.634-134.183-11.574 138.082-99.388 254.482-221.211 306.971zM211.773 693.537l-12.508 45.865 45.865-12.509a32 32 0 0 1 24.521 3.219c15.264 8.887 24.37 14.217 27.596 16.15 46.773 28.047 100.29 43.071 156.086 43.071 167.895 0 304-136.105 304-304 0-167.894-136.105-304-304-304-167.894 0-304 136.106-304 304 0 50.792 12.444 99.715 35.9 143.452 3.11 5.798 10.936 19.31 23.203 40.029a32 32 0 0 1 3.337 24.723z m374.894-320.204c17.673 0 32 14.327 32 32 0 17.673-14.327 32-32 32H320c-17.673 0-32-14.327-32-32 0-17.673 14.327-32 32-32h266.667z m-128 160c17.673 0 32 14.327 32 32 0 17.673-14.327 32-32 32H320c-17.673 0-32-14.327-32-32 0-17.673 14.327-32 32-32h138.667z"  /></svg>