<?xml version="1.0" standalone="no"?><!DOCTYPE svg PUBLIC "-//W3C//DTD SVG 1.1//EN" "http://www.w3.org/Graphics/SVG/1.1/DTD/svg11.dtd"><svg class="icon" width="200px" height="200.00px" viewBox="0 0 1024 1024" version="1.1" xmlns="http://www.w3.org/2000/svg"><path fill="#1296db" d="M544 789.333h105.18c5.89 0 10.667-4.775 10.667-10.666l-0.007-0.366-3.23-94.3a32 32 0 0 1 14.299-27.768C750.925 603.186 800 513.787 800 416c0-159.058-128.942-288-288-288S224 256.942 224 416c0 97.81 49.099 187.229 129.147 240.27a32 32 0 0 1 14.305 25.576l3.342 97.187a10.667 10.667 0 0 0 10.66 10.3H480V572.69l-76.636-81.425c-12.112-12.87-11.499-33.122 1.371-45.234 12.87-12.113 33.122-11.499 45.234 1.37l63.364 67.325 72.695-68.657c12.849-12.135 33.102-11.556 45.236 1.292 12.135 12.849 11.557 33.102-1.292 45.237L544 573.793v215.54zM864 416c0 113.278-53.95 217.43-142.834 283.144l2.637 76.966c0.029 0.852 0.044 1.704 0.044 2.557 0 41.237-33.43 74.666-74.667 74.666H381.455c-40.239 0-73.24-31.886-74.623-72.1l-2.792-81.202C214.438 634.371 160 529.791 160 416c0-194.404 157.596-352 352-352s352 157.596 352 352zM416 960c-17.673 0-32-14.327-32-32 0-17.673 14.327-32 32-32h192c17.673 0 32 14.327 32 32 0 17.673-14.327 32-32 32H416z"  /></svg>