<?xml version="1.0" standalone="no"?><!DOCTYPE svg PUBLIC "-//W3C//DTD SVG 1.1//EN" "http://www.w3.org/Graphics/SVG/1.1/DTD/svg11.dtd"><svg class="icon" width="200px" height="200.00px" viewBox="0 0 1024 1024" version="1.1" xmlns="http://www.w3.org/2000/svg"><path fill="#1296db" d="M269.44 256l23.3-75.383C302.41 149.334 331.333 128 364.076 128h295.848c32.743 0 61.667 21.334 71.336 52.617L754.56 256h66.773c64.802 0 117.334 52.532 117.334 117.333V800c0 64.801-52.532 117.333-117.334 117.333H202.667c-64.802 0-117.334-52.532-117.334-117.333V373.333C85.333 308.532 137.865 256 202.667 256h66.773z m23.602 64h-90.375c-29.456 0-53.334 23.878-53.334 53.333V800c0 29.455 23.878 53.333 53.334 53.333h618.666c29.456 0 53.334-23.878 53.334-53.333V373.333c0-29.455-23.878-53.333-53.334-53.333h-90.375a32 32 0 0 1-30.573-22.55l-30.27-97.933A10.667 10.667 0 0 0 659.923 192H364.076c-4.677 0-8.81 3.048-10.19 7.517l-30.27 97.933A32 32 0 0 1 293.041 320zM512 725.333c-88.366 0-160-71.634-160-160 0-88.365 71.634-160 160-160s160 71.635 160 160c0 88.366-71.634 160-160 160z m0-64c53.02 0 96-42.98 96-96 0-53.019-42.98-96-96-96s-96 42.981-96 96c0 53.02 42.98 96 96 96z"  /></svg>