<?xml version="1.0" standalone="no"?><!DOCTYPE svg PUBLIC "-//W3C//DTD SVG 1.1//EN" "http://www.w3.org/Graphics/SVG/1.1/DTD/svg11.dtd"><svg class="icon" width="200px" height="200.00px" viewBox="0 0 1024 1024" version="1.1" xmlns="http://www.w3.org/2000/svg"><path fill="#1296db" d="M507.14 514.947a32.14 32.14 0 0 1 12.023-10.313c14.707-9.05 34.233-6.91 46.635 6.139l97.427 102.79c12.158 12.827 11.615 33.081-1.212 45.239-12.826 12.157-33.08 11.615-45.238-1.212l-51.442-54.273v250.016c0 17.673-14.327 32-32 32-17.673 0-32-14.327-32-32V608.76l-52.621 50.013c-12.81 12.175-33.065 11.66-45.24-1.15-12.176-12.81-11.66-33.065 1.15-45.24l102.517-97.435z m4.86-376.28c123.022 0 228.212 85.7 259.427 204.469 92.876 1.59 167.24 79.613 167.24 175.086 0 96.463-75.913 175.111-170.134 175.111-17.673 0-32-14.327-32-32 0-17.673 14.327-32 32-32 58.358 0 106.134-49.497 106.134-111.11 0-61.614-47.776-111.112-106.134-111.112-5.85 0-11.628 0.493-17.3 1.464-17.627 3.02-34.308-8.993-37.03-26.668C698.357 279.039 612.715 202.667 512 202.667c-73.838 0-140.929 41.06-177.372 106.61a32 32 0 0 1-30.124 16.378 142.02 142.02 0 0 0-9.57-0.322c-80.155 0-145.6 67.805-145.6 152 0 84.196 65.445 152 145.6 152 17.673 0 32 14.327 32 32 0 17.673-14.327 32-32 32-116.018 0-209.6-96.955-209.6-216 0-116.934 90.293-212.555 203.45-215.909C338.093 185.687 421.02 138.667 512 138.667z"  /></svg>