<?xml version="1.0" standalone="no"?><!DOCTYPE svg PUBLIC "-//W3C//DTD SVG 1.1//EN" "http://www.w3.org/Graphics/SVG/1.1/DTD/svg11.dtd"><svg class="icon" width="200px" height="200.00px" viewBox="0 0 1024 1024" version="1.1" xmlns="http://www.w3.org/2000/svg"><path fill="#1296db" d="M512 938.667C276.359 938.667 85.333 747.64 85.333 512 85.333 276.359 276.36 85.333 512 85.333c235.641 0 426.667 191.026 426.667 426.667 0 235.641-191.026 426.667-426.667 426.667z m0-64c200.295 0 362.667-162.372 362.667-362.667 0-200.295-162.372-362.667-362.667-362.667-200.295 0-362.667 162.372-362.667 362.667 0 200.295 162.372 362.667 362.667 362.667zM544 480h128c17.673 0 32 14.327 32 32 0 17.673-14.327 32-32 32H544v128c0 17.673-14.327 32-32 32-17.673 0-32-14.327-32-32V544H352c-17.673 0-32-14.327-32-32 0-17.673 14.327-32 32-32h128V352c0-17.673 14.327-32 32-32 17.673 0 32 14.327 32 32v128z"  /></svg>